<svg width="25" height="25" viewBox="0 0 25 25" fill="none" xmlns="http://www.w3.org/2000/svg">
<path d="M15.65 22.9166C16.9553 22.9166 18.0754 22.8481 19.0112 22.6401C19.959 22.4294 20.7806 22.0623 21.4214 21.4214C22.0623 20.7806 22.4294 19.959 22.6401 19.0112C22.8481 18.0754 22.9166 16.9553 22.9166 15.65V12.5C22.9166 11.3493 21.9839 10.4166 20.8333 10.4166H12.5C11.3493 10.4166 10.4166 11.3493 10.4166 12.5V20.8333C10.4166 21.9839 11.3493 22.9166 12.5 22.9166H15.65Z" fill="#2C5AA7"/>
<path d="M2.08337 15.65C2.08337 16.9553 2.15196 18.0754 2.35996 19.0112C2.57058 19.959 2.93776 20.7806 3.57861 21.4214C4.21947 22.0623 5.04101 22.4294 5.98874 22.6401C6.0795 22.6602 6.17072 22.6791 6.26231 22.6968C7.39201 22.9151 8.33337 21.9589 8.33337 20.8083V12.5C8.33337 11.3493 7.40063 10.4166 6.25004 10.4166H4.16671C3.01611 10.4166 2.08337 11.3493 2.08337 12.5V15.65Z" fill="#2C5AA7"/>
<path d="M9.34997 2.08337C8.04463 2.08337 6.92458 2.15196 5.98867 2.35996C5.04094 2.57058 4.2194 2.93776 3.57855 3.57861C2.93769 4.21947 2.57051 5.04101 2.35989 5.98874C2.3426 6.06656 2.32633 6.14463 2.31105 6.22294C2.08773 7.3674 3.06136 8.33337 4.2274 8.33337H20.8083C21.959 8.33337 22.9151 7.39201 22.6969 6.26231C22.6792 6.17072 22.6602 6.0795 22.6401 5.98874C22.4294 5.04101 22.0623 4.21947 21.4214 3.57861C20.7805 2.93776 19.959 2.57058 19.0113 2.35996C18.0753 2.15196 16.9553 2.08337 15.65 2.08337H9.34997Z" fill="#2C5AA7"/>
</svg>
