<svg width="25" height="25" viewBox="0 0 25 25" fill="none" xmlns="http://www.w3.org/2000/svg">
<g clip-path="url(#clip0_350_4389)">
<path d="M14.1938 -0.00158691H0.643752C0.0718766 -0.00158691 0 0.0828968 0 0.748983C0 6.27628 0 11.803 0 17.3291C0 17.4714 0.0109384 17.6137 0.0179696 17.7809H2.46719C3.45781 17.7809 3.90391 18.2851 3.90547 19.4021C3.90547 20.3314 3.90547 21.2598 3.90547 22.2078H10.468C10.468 21.3487 10.4453 20.5066 10.4727 19.6671C10.5367 17.6617 10.9641 15.7906 12.2508 14.3233C12.6938 13.819 13.2461 13.434 13.782 12.9715C13.5719 12.349 13.6906 11.7398 14.1328 11.2C14.1852 11.1378 14.1625 10.9555 14.1281 10.8443C13.9602 10.3161 13.7547 9.80295 13.6039 9.26937C13.2664 8.07859 13.7203 7.3547 14.8438 7.31291V6.88159C14.8438 4.83739 14.8438 2.792 14.8438 0.745425C14.8422 0.0873425 14.7641 -0.00158691 14.1938 -0.00158691ZM7.42813 3.07984C7.439 2.73535 7.56509 2.4086 7.7806 2.16643C7.99611 1.92426 8.28475 1.78495 8.5875 1.77701C8.89011 1.78168 9.17968 1.91795 9.39685 2.15788C9.61402 2.39781 9.74233 2.72322 9.75547 3.06739C9.78281 3.94068 9.76797 4.81575 9.76172 5.68904C9.76172 5.97095 9.64141 6.19684 9.37109 6.19684C9.10078 6.19684 8.99297 5.97006 8.98047 5.68816C8.9711 5.44004 8.98047 5.19015 8.98047 4.89935H8.19922C8.19922 5.14479 8.19922 5.38935 8.19922 5.63302C8.19922 5.93004 8.10703 6.18705 7.81719 6.19506C7.52734 6.20306 7.42031 5.95672 7.42031 5.65881C7.42031 4.80063 7.40235 3.93979 7.42813 3.08162V3.07984ZM4.29844 3.13853C4.31875 2.36573 4.85235 1.76545 5.48281 1.7779C6.11328 1.79035 6.60781 2.3764 6.63672 3.13053C6.64844 3.42489 6.63672 3.72102 6.63672 4.01983C6.63672 4.30085 6.64531 4.58187 6.63672 4.862C6.60938 5.63658 6.08281 6.23507 5.45078 6.22262C4.81875 6.21017 4.31875 5.62324 4.29766 4.87C4.28281 4.29284 4.28281 3.71569 4.29531 3.14031L4.29844 3.13853ZM1.95469 2.31326C1.95469 2.03313 2.0711 1.79925 2.33828 1.79836C2.62735 1.79836 2.72891 2.04558 2.7336 2.34439C2.73828 3.14476 2.7336 3.94513 2.7336 4.7455V5.33421C3.00235 5.33421 3.22188 5.32532 3.44063 5.33421C3.68906 5.34755 3.88594 5.4765 3.8836 5.77886C3.88125 6.08123 3.67969 6.20928 3.43281 6.21729C3.09453 6.22707 2.75625 6.22796 2.41719 6.21729C2.12422 6.20839 1.95391 6.02342 1.94844 5.68371C1.94583 4.56141 1.94688 3.43852 1.95156 2.31504L1.95469 2.31326ZM10.1227 15.1023C10.0516 15.1583 9.92031 15.1165 9.81641 15.1165H2.7211C2.62969 15.1165 2.53906 15.1165 2.44766 15.1165C2.18516 15.105 1.96953 14.9902 1.97422 14.6594C1.97813 14.357 2.18359 14.2423 2.43047 14.2272C2.49453 14.2228 2.56016 14.2272 2.625 14.2272H9.87656C9.95469 14.2272 10.0547 14.1943 10.1063 14.237C10.2549 14.3708 10.3975 14.5129 10.5336 14.663C10.4072 14.8229 10.2692 14.9704 10.1211 15.1041L10.1227 15.1023ZM12.4125 12.8933C12.3086 12.8995 12.2047 12.8933 12.1 12.8933H2.70078C2.59688 12.8933 2.46641 12.9342 2.39375 12.8808C2.2375 12.7661 2.01406 12.622 1.98594 12.4531C1.9375 12.164 2.16016 12.0253 2.4086 12.004C2.48672 11.9968 2.56485 12.004 2.64297 12.004H12.1992C12.2641 12.004 12.3289 12.004 12.3938 12.004C12.657 12.0155 12.8719 12.1302 12.8688 12.4602C12.8648 12.7634 12.6586 12.8781 12.4125 12.8933ZM1.99063 10.2423C2.01172 10.076 2.19141 9.91233 2.33594 9.79761C2.41406 9.73447 2.56328 9.77627 2.67969 9.77627H12.1188C12.2094 9.77627 12.3008 9.77627 12.3914 9.77627C12.6547 9.78605 12.8734 9.90077 12.8672 10.2298C12.8609 10.5589 12.6328 10.6602 12.375 10.6665H2.62422C2.52109 10.6665 2.38985 10.6994 2.31875 10.6424C2.18594 10.5393 1.97578 10.3596 1.99063 10.2423ZM12.1602 8.44676H2.68281C2.57891 8.44676 2.44844 8.48856 2.37656 8.43253C2.22843 8.29796 2.09069 8.1492 1.96485 7.98788C2.09904 7.83579 2.24179 7.69379 2.39219 7.5628C2.45547 7.51389 2.56953 7.55124 2.66094 7.55124H12.1773C12.4797 7.55124 12.8133 7.51478 12.8703 7.98611C12.9078 8.30625 12.6711 8.44676 12.1602 8.44676ZM12.8758 5.65614C12.8629 5.76318 12.8278 5.8652 12.7735 5.95379C12.7191 6.04238 12.6471 6.11502 12.5633 6.16571C12.4602 6.21017 12.2047 6.02075 12.1227 5.86335C11.8555 5.35022 11.6359 4.80419 11.3297 4.29106V5.60456C11.3297 5.91582 11.2516 6.19772 10.9391 6.19506C10.6266 6.19239 10.5484 5.9087 10.5484 5.59834C10.5484 4.51695 10.5344 3.43556 10.5625 2.35595C10.5672 2.1683 10.7258 1.87662 10.8609 1.83571C10.9961 1.7948 11.2375 1.98778 11.3234 2.1523C11.5883 2.65653 11.8008 3.19634 12.0336 3.7228L12.1117 3.70324C12.1117 3.25859 12.1117 2.82016 12.1117 2.37818C12.1117 2.06337 12.2055 1.79035 12.5188 1.80013C12.8063 1.80903 12.8938 2.07315 12.8945 2.36929C12.8891 3.46668 12.9047 4.56319 12.8758 5.65792V5.65614Z" fill="#B1B1B1"/>
<path d="M21.8367 24.0388C21.7372 23.429 21.6712 22.8127 21.639 22.1936C21.5695 20.9387 21.5937 19.6733 21.4624 18.4283C21.2789 16.6826 20.5976 15.209 19.2671 14.2219C18.2359 13.4562 17.0726 13.2259 15.8687 13.3548C14.0929 13.546 12.7289 14.4807 11.9007 16.3428C11.3234 17.6403 11.2601 19.0303 11.2101 20.4416C11.1656 21.6786 11.0484 22.9139 10.9484 24.1473C10.9226 24.4639 11.0546 24.528 11.282 24.5475C12.9903 24.6952 14.6999 24.846 16.4109 25.0002C18.1179 24.849 19.8132 24.6943 21.5101 24.5555C21.8195 24.5253 21.896 24.3972 21.8367 24.0388ZM18.3031 16.7315H16.9109C17.0428 16.8506 17.1525 16.9985 17.2337 17.1665C17.3148 17.3344 17.3658 17.5191 17.3835 17.7097H18.3031V18.1899H17.3914C17.307 19.1682 16.6242 19.7907 15.5437 19.8316C16.2023 20.6097 16.9195 21.5888 17.6281 22.5786H16.8179C16.1601 21.676 15.5437 20.84 14.7507 19.8796V19.2847H15.2148C16.1265 19.2847 16.6156 18.8525 16.6742 18.1899H14.7507V17.7097H16.6492C16.5312 17.1521 16.0843 16.8738 15.3499 16.8738H14.7507V16.2513H18.3031V16.7315Z" fill="#B1B1B1"/>
<path d="M14.8961 10.7471C14.7109 10.1468 14.493 9.4585 14.2875 8.76485C14.2094 8.51318 14.2476 8.26862 14.5133 8.20726C14.7476 8.15301 14.9039 8.2784 14.9445 8.57365C14.975 8.73272 15.02 8.88771 15.0789 9.03609C15.1711 9.30821 15.3609 9.48696 15.5867 9.32867C15.7133 9.23974 15.7641 8.96139 15.7914 8.75774C15.8094 8.62701 15.7203 8.47938 15.6851 8.3371C15.6609 8.23927 15.607 8.11122 15.6375 8.04185C15.7101 7.888 15.8258 7.64967 15.9297 7.64522C16.3069 7.633 16.6841 7.67 17.0539 7.7555C17.1141 7.76884 17.1586 8.09076 17.1445 8.26329C17.1281 8.46338 16.9883 8.65902 16.9953 8.85111C17.0031 9.02097 17.1195 9.29576 17.2242 9.32155C17.3664 9.35446 17.5844 9.23262 17.693 9.09834C17.8016 8.96405 17.8492 8.72483 17.8797 8.52385C17.9273 8.22416 18.1094 8.137 18.2992 8.23839C18.4164 8.30153 18.557 8.56831 18.5258 8.69015C18.3414 9.40781 18.1101 10.113 17.9164 10.7471H14.8961Z" fill="#B1B1B1"/>
<path d="M0.735962 18.6736H2.67346C2.95393 18.6736 3.11721 18.8265 3.11956 19.1529C3.12424 19.9328 3.11956 20.7127 3.11956 21.3895L0.735962 18.6736Z" fill="#B1B1B1"/>
<path d="M16.4429 11.5085C16.9304 11.5859 17.4179 11.6597 17.9054 11.7424C18.0246 11.7527 18.1362 11.813 18.2186 11.9116C18.301 12.0101 18.3484 12.14 18.3515 12.276C18.3851 12.6504 18.2734 12.7651 17.9539 12.6753C16.9638 12.4104 15.9343 12.3989 14.9398 12.6415C14.7718 12.6798 14.5414 12.8861 14.4711 12.5135C14.4086 12.1764 14.4867 11.8616 14.814 11.7762C15.2081 11.6856 15.606 11.6183 16.0062 11.5744C16.1491 11.5646 16.2923 11.5646 16.4351 11.5744L16.4429 11.5085Z" fill="#B1B1B1"/>
<path d="M8.97811 3.97771H8.2078C8.2078 3.67535 8.16327 3.36053 8.22499 3.07507C8.25936 2.91588 8.47108 2.69889 8.59999 2.70156C8.72889 2.70423 8.92264 2.92833 8.96171 3.09374C9.02264 3.35431 8.97811 3.64422 8.97811 3.97771Z" fill="#B1B1B1"/>
<path d="M5.85779 4.00008C5.85779 4.28021 5.85779 4.56123 5.85779 4.84136C5.85779 5.13661 5.73357 5.3287 5.46717 5.32692C5.21873 5.32692 5.09061 5.14906 5.08826 4.86893C5.08201 4.29355 5.08279 3.71817 5.08826 3.1428C5.08826 2.86711 5.21482 2.68481 5.46248 2.67947C5.73201 2.67325 5.85857 2.86267 5.86248 3.1588C5.85779 3.43626 5.85779 3.71728 5.85779 4.00008Z" fill="#B1B1B1"/>
</g>
<defs>
<clipPath id="clip0_350_4389">
<rect width="25" height="25" fill="white"/>
</clipPath>
</defs>
</svg>
